<?xml version="1.0" encoding="utf-8"?>
<!-- Generator: Adobe Illustrator 26.0.3, SVG Export Plug-In . SVG Version: 6.00 Build 0)  -->
<svg version="1.1" id="Layer_1" xmlns="http://www.w3.org/2000/svg" xmlns:xlink="http://www.w3.org/1999/xlink" x="0px" y="0px"
	 viewBox="0 0 1185.5 247" style="enable-background:new 0 0 1185.5 247;" xml:space="preserve">
<style type="text/css">
	.st0{fill:#ffffff;}
</style>
<g>
	<path class="st0" d="M269,81.2h12.1v42.3c13.2-11.2,34.2-28.4,50.5-42.3h15.7L303.7,118l46.3,49.1h-15.8l-39.6-42.5l-13.4,10.7
		v31.8H269V81.2z"/>
	<path class="st0" d="M395.7,141.1l-11.1,26H372l36.9-85.9h14.7l38.4,85.9h-13.2l-11.6-26H395.7z M433.3,130.8
		c-10.5-23.7-15.4-34.9-17.4-40.8h-0.1c-1.8,5.6-7.6,20.3-16.3,40.8H433.3z"/>
	<path class="st0" d="M512.3,130.1v37h-12.1V81.2h41c17.6,0,29.4,8.1,29.4,23.3c0,10.4-5.2,17.7-15.7,20.5
		c5.7,1.6,13.4,5.9,13.4,20.9v3.8c0,6.6,0,13.8,1,17.4H557c-1.3-3.7-1.1-10.3-1.1-17.5v-2.9c0-12.7-4.9-16.7-20-16.7H512.3z
		 M512.3,120.2h25.9c13.4,0,20-4.7,20-14.9c0-9.4-6.6-14.1-19.5-14.1h-26.3V120.2z"/>
	<path class="st0" d="M629.7,141.1l-11.1,26h-12.7l36.9-85.9h14.7l38.4,85.9h-13.2l-11.6-26H629.7z M667.3,130.8
		c-10.5-23.7-15.4-34.9-17.4-40.8h-0.1c-1.8,5.6-7.6,20.3-16.3,40.8H667.3z"/>
	<path class="st0" d="M734.1,81.2h40.3c21.4,0,31.1,11,31.1,25.3c0,16.9-11.6,26.3-30.6,26.3h-28.6v34.3h-12.2V81.2z M746.3,122.6
		h26.8c11.8,0,20-3.5,20-15.9c0-9.7-6.5-15.3-20-15.3h-26.8V122.6z"/>
	<path class="st0" d="M851.2,141.1l-11.1,26h-12.7l36.9-85.9h14.7l38.4,85.9h-13.2l-11.6-26H851.2z M888.8,130.8
		c-10.5-23.7-15.4-34.9-17.4-40.8h-0.1c-1.8,5.6-7.6,20.3-16.3,40.8H888.8z"/>
	<path class="st0" d="M1033.2,142c-4.9,14.7-15.7,27-40.2,27c-28.5,0-44-20-44-44.6c0-24.6,17.2-44.9,44.7-44.9
		c24.8,0,36.5,13.4,39.8,27.5h-12.5c-3.7-9-10.6-17.3-27.5-17.3c-19.7,0-31.6,14.6-31.6,34.4c0,19.5,11.8,34.9,31.8,34.9
		c16.2,0,22.6-6.9,27.3-16.9H1033.2z"/>
	<path class="st0" d="M1138.7,127.1h-51.5v29.7h56.8l-1.6,10.3h-67.3V81.2h66.4v10.3h-54.2v25.4h51.5V127.1z"/>
</g>
<g>
	<polygon class="st0" points="161,26 161,26 161,26 	"/>
	<path class="st0" d="M161,26v0.3c0,0,0,0,0,0L161,26C161,26,161,26,161,26c-2.3,0-4.7,0.4-7,1.4L46.8,72.3c-6.7,2.8-11,9.3-11,16.6
		v71.4c0,7.3,4.4,13.8,11,16.6l107.2,44.9c2.3,1,4.7,1.4,7,1.4c9.5,0,18-7.7,18-18V44C179,33.6,170.5,26,161,26z M173.3,57.3
		c0.6-0.6,1.2-1.3,1.7-1.9v137.7l-49.2-90.6L173.3,57.3z M71.8,104.3V66.2l71.3-29.9L71.8,104.3z M71.8,154l27.1-25.8l46.2,85.1
		c0.1,0.2,0.2,0.4,0.3,0.6l-73.6-30.8V154z"/>
</g>
</svg>
