<svg width="237" height="49" viewBox="0 0 237 49" fill="none" xmlns="http://www.w3.org/2000/svg">
<path d="M53.7773 16.1085H56.1963V24.5C58.8352 22.2782 63.0334 18.866 66.2921 16.1085H69.4307L60.7144 23.4089L69.9705 33.1494H66.8118L58.8952 24.7182L56.2163 26.8409V33.1494H53.7773V16.1085Z" fill="#303030"/>
<path d="M79.1067 27.9915L76.8876 33.1494H74.3687L81.7455 16.1085H84.6843L92.3611 33.1494H89.7222L87.4032 27.9915H79.1067ZM86.6235 25.9482C84.5244 21.2466 83.5448 19.0247 83.1449 17.8543H83.125C82.7651 18.9652 81.6056 21.8814 79.8663 25.9482H86.6235Z" fill="#303030"/>
<path d="M102.417 25.8093V33.1494H99.9978V16.1085H108.194C111.713 16.1085 114.072 17.7154 114.072 20.7308C114.072 22.7939 113.032 24.2421 110.933 24.7976C112.073 25.115 113.612 25.968 113.612 28.9437V29.6976C113.612 31.0069 113.612 32.4352 113.812 33.1494H111.353C111.093 32.4154 111.133 31.1061 111.133 29.6778V29.1024C111.133 26.583 110.154 25.7895 107.135 25.7895H102.417V25.8093ZM102.417 23.8454H107.595C110.273 23.8454 111.593 22.913 111.593 20.8895C111.593 19.0247 110.273 18.0923 107.695 18.0923H102.437V23.8454H102.417Z" fill="#303030"/>
<path d="M125.887 27.9915L123.668 33.1494H121.129L128.506 16.1085H131.445L139.121 33.1494H136.482L134.163 27.9915H125.887ZM133.404 25.9482C131.305 21.2466 130.325 19.0247 129.925 17.8543H129.905C129.545 18.9652 128.386 21.8814 126.647 25.9482H133.404Z" fill="#303030"/>
<path d="M146.758 16.1085H154.815C159.093 16.1085 161.032 18.2907 161.032 21.1275C161.032 24.4802 158.713 26.345 154.915 26.345H149.197V33.1494H146.758V16.1085ZM149.197 24.3215H154.555C156.914 24.3215 158.553 23.6271 158.553 21.1672C158.553 19.2429 157.254 18.132 154.555 18.132H149.197V24.3215Z" fill="#303030"/>
<path d="M170.168 27.9915L167.949 33.1494H165.41L172.787 16.1085H175.726L183.403 33.1494H180.764L178.445 27.9915H170.168ZM177.685 25.9482C175.586 21.2466 174.606 19.0247 174.207 17.8543H174.187C173.827 18.9652 172.667 21.8814 170.928 25.9482H177.685Z" fill="#303030"/>
<path d="M206.553 28.1701C205.573 31.0862 203.414 33.5263 198.516 33.5263C192.819 33.5263 189.72 29.5587 189.72 24.6786C189.72 19.7984 193.159 15.7713 198.656 15.7713C203.614 15.7713 205.953 18.4296 206.613 21.2267H204.114C203.374 19.4413 201.995 17.7948 198.616 17.7948C194.678 17.7948 192.299 20.6911 192.299 24.619C192.299 28.4875 194.658 31.5425 198.656 31.5425C201.895 31.5425 203.174 30.1737 204.114 28.1899H206.553V28.1701Z" fill="#303030"/>
<path d="M227.644 25.2142H217.348V31.1061H228.704L228.384 33.1494H214.929V16.1085H228.204V18.1518H217.368V23.1907H227.664V25.2142H227.644Z" fill="#303030"/>
<path d="M32.1864 5.1579V5.21741V5.1579C31.7266 5.1579 31.2468 5.23725 30.787 5.43563L9.35606 14.3429C8.01662 14.8984 7.15698 16.1879 7.15698 17.636V31.8004C7.15698 33.2486 8.03661 34.5381 9.35606 35.0935L30.787 44.0008C31.2468 44.1992 31.7266 44.2785 32.1864 44.2785C34.0856 44.2785 35.7849 42.751 35.7849 40.7077V8.72875C35.7849 6.66559 34.0856 5.1579 32.1864 5.1579ZM34.6454 11.3672C34.7653 11.2482 34.8853 11.1093 34.9852 10.9903V38.3073L25.1494 20.334L34.6454 11.3672ZM14.3539 20.6911V13.1328L28.6079 7.20122L14.3539 20.6911ZM14.3539 30.5506L19.7717 25.4324L29.0078 42.3146C29.0278 42.3543 29.0477 42.3939 29.0677 42.4336L14.3539 36.3235V30.5506Z" fill="#303030"/>
</svg>
